<svg xmlns="http://www.w3.org/2000/svg" viewBox="0 0 422.03 207.2"><defs><style>.cls-1,.cls-2{stroke:#29abe2;stroke-miterlimit:10;}.cls-1{stroke-width:0.5px;}</style></defs><g id="Camada_2" data-name="Camada 2"><g id="Camada_1-2" data-name="Camada 1"><path class="cls-1" d="M174.21,13.49a1,1,0,0,1,1-1.05H190.9a51.38,51.38,0,0,1,12,1,11.87,11.87,0,0,1,6.58,4.21Q212,20.87,212,27.91q0,4.77-1.77,6.65a8.47,8.47,0,0,1-3.29,1.92,1,1,0,0,0,0,2,9.32,9.32,0,0,1,4.17,2.69c1.38,1.72,2.07,4.34,2.07,7.88v5.05q0,5.5-1.49,8.16a7.75,7.75,0,0,1-4.75,3.64q-3.25,1-13.36,1h-18.3a1,1,0,0,1-1-1Zm16.73,9.33v9.94A1.05,1.05,0,0,0,192,33.81h.6c1.64,0,2.69-.34,3.14-1s.68-2.64.68-5.86a8.15,8.15,0,0,0-.56-3.58,2.5,2.5,0,0,0-1.45-1.29,11,11,0,0,0-2.38-.28A1.06,1.06,0,0,0,190.94,22.82Zm0,20.58v13a1.06,1.06,0,0,0,1.13,1,6.27,6.27,0,0,0,3.38-.89c.65-.56,1-1.93,1-4.13V47.38c0-2.33-.3-3.74-.88-4.24s-1.65-.67-3.49-.79A1.07,1.07,0,0,0,190.94,43.4Z"/><path class="cls-1" d="M255,37.9V48.82a39.61,39.61,0,0,1-.71,8.82,11.77,11.77,0,0,1-3.06,5.24,14.07,14.07,0,0,1-6,3.6,28.14,28.14,0,0,1-8.44,1.16,35.32,35.32,0,0,1-9-1,12.84,12.84,0,0,1-5.75-3,11.37,11.37,0,0,1-2.92-4.84,31.14,31.14,0,0,1-.87-8.52V38.88c0-4.15.53-7.38,1.59-9.71a11.9,11.9,0,0,1,5.72-5.61,23.17,23.17,0,0,1,10.57-2.12,28,28,0,0,1,9.28,1.36,15.15,15.15,0,0,1,6,3.55,12.08,12.08,0,0,1,2.88,4.5A24.07,24.07,0,0,1,255,37.9ZM239,34.54a12.68,12.68,0,0,0-.43-4.31,1.87,1.87,0,0,0-1.87-.89,2,2,0,0,0-1.91.89,11.52,11.52,0,0,0-.48,4.31V54.67a11,11,0,0,0,.48,4.11,1.88,1.88,0,0,0,1.87,1,1.94,1.94,0,0,0,1.89-.87A9.89,9.89,0,0,0,239,55.1Z"/><path class="cls-1" d="M273.6,39.52h-13a1,1,0,0,1-1.05-1.05V36.53a18.16,18.16,0,0,1,1.41-8c.94-1.87,2.83-3.53,5.67-5a24.56,24.56,0,0,1,11-2.15q8.15,0,12.28,2.44t5,6q.82,3.54.83,14.59V65.78a1,1,0,0,1-1.05,1H281.22a1,1,0,0,1-1.05-1h0a1,1,0,0,0-1.76-.76,9.16,9.16,0,0,1-2,1.42,12,12,0,0,1-5.55,1.2,15.41,15.41,0,0,1-7.73-2q-3.53-2-3.52-8.75V53.22c0-3.33.63-5.61,1.87-6.82s4.33-2.62,9.26-4.23q7.91-2.62,8.47-3.53a8,8,0,0,0,.55-3.69c0-2.33-.2-3.85-.61-4.56a2.18,2.18,0,0,0-2.05-1.05c-1.09,0-1.76.29-2,.89a15.63,15.63,0,0,0-.39,4.62v3.62A1,1,0,0,1,273.6,39.52Zm6.13,8.06a1.06,1.06,0,0,0-1.67-.85,7.74,7.74,0,0,0-2.8,2.9,13.57,13.57,0,0,0-.61,4.63,11.73,11.73,0,0,0,.53,4.47,2.18,2.18,0,0,0,2.13,1c1,0,1.66-.26,2-.79s.45-1.91.45-4.15Z"/><path class="cls-1" d="M318.25,17.35v4.92a1,1,0,0,0,1.05,1.05h2.23a1,1,0,0,1,1.05,1.05v5a1,1,0,0,1-1.05,1.05H319.3a1,1,0,0,0-1.05,1.05v22.8c0,2.94.18,4.57.53,4.91s1.46.45,3.44.49a1.06,1.06,0,0,1,1,1v5.1a1,1,0,0,1-1.05,1h-5.43a54.1,54.1,0,0,1-7.83-.39,8.92,8.92,0,0,1-4.14-1.78,5.79,5.79,0,0,1-2.22-3.19,48,48,0,0,1-.44-8.45V31.43a1,1,0,0,0-1-1.05h-1.36a1,1,0,0,1-1.05-1.05v-5a1,1,0,0,1,1.05-1.05h1.36a1,1,0,0,0,1-1.05V17.35a1,1,0,0,1,1.05-1.05h14A1,1,0,0,1,318.25,17.35Z"/><path class="cls-1" d="M361.44,45.33H342.75a1,1,0,0,0-1.05,1.05V55a9.27,9.27,0,0,0,.51,3.9,2.13,2.13,0,0,0,2,.87,2.52,2.52,0,0,0,2.45-1.16,10.88,10.88,0,0,0,.61-4.48V49.27a1,1,0,0,1,1.05-1.05h13.13a1,1,0,0,1,1.05,1.05v2.24a25.11,25.11,0,0,1-.62,6.35A12.3,12.3,0,0,1,359,62.6a14,14,0,0,1-5.75,3.78,25.82,25.82,0,0,1-8.72,1.26,29.47,29.47,0,0,1-9-1.25A14.55,14.55,0,0,1,329.48,63a11.65,11.65,0,0,1-3-4.77,26,26,0,0,1-.84-7.57v-13c0-3.89.62-7,1.87-9.22a12,12,0,0,1,6.12-5.17,28.63,28.63,0,0,1,20.93.37,12.92,12.92,0,0,1,6.16,5.74q1.77,3.58,1.77,10.06v4.87A1,1,0,0,1,361.44,45.33Zm-16.1-7.26a1,1,0,0,0,1.05-1V34.81a14.08,14.08,0,0,0-.44-4.47,1.75,1.75,0,0,0-1.79-1c-1.11,0-1.8.28-2.06.85a15,15,0,0,0-.4,4.62V37a1,1,0,0,0,1.05,1Z"/><path class="cls-2" d="M246.7,76.33v26.8a1.66,1.66,0,0,1-.14.66l-33.27,72.37a1.57,1.57,0,0,0,1.43,2.22h30.42a1.56,1.56,0,0,1,1.56,1.56v22.85a1.56,1.56,0,0,1-1.56,1.56H168.67a1.56,1.56,0,0,1-1.57-1.56V177.55a1.52,1.52,0,0,1,.15-.66l34-73.93a1.56,1.56,0,0,0-1.42-2.22H172.25a1.57,1.57,0,0,1-1.57-1.56V76.33a1.58,1.58,0,0,1,1.57-1.57h72.89A1.57,1.57,0,0,1,246.7,76.33Z"/><path class="cls-2" d="M363.87,76.33V202.79a1.56,1.56,0,0,1-1.57,1.56H318.07a1.56,1.56,0,0,1-1.56-1.68l.32-4.31a1.56,1.56,0,0,0-2.69-1.19,30.36,30.36,0,0,1-8.9,6.25,38.59,38.59,0,0,1-16.35,3.28q-10.51,0-17.45-3.13a22.68,22.68,0,0,1-10.22-8.3,27.08,27.08,0,0,1-4.1-10.79q-.81-5.61-.81-22.31V76.33a1.57,1.57,0,0,1,1.56-1.57h43.55A1.57,1.57,0,0,1,303,76.33V163q0,15.13,1.1,18c.73,1.89,2.72,2.83,5.95,2.83q5.21,0,6.18-2.93t1-18.85V76.33a1.57,1.57,0,0,1,1.57-1.57H362.3A1.57,1.57,0,0,1,363.87,76.33Z"/><path class="cls-2" d="M421.53,47.81v155a1.56,1.56,0,0,1-1.56,1.56H375a1.56,1.56,0,0,1-1.57-1.56v-155A1.56,1.56,0,0,1,375,46.25H420A1.56,1.56,0,0,1,421.53,47.81Z"/><path class="cls-2" d="M155.23,15.43,73.38.54a2.77,2.77,0,0,0-3.1,1.81L18.62,150.47l-2.75,7.87L13,166.59l-6.92,20L.59,202.52a1.56,1.56,0,0,0,1.48,2.07H64.54a1.55,1.55,0,0,0,1.5-1.13l1.46-5.07,3.37-11.81v.4l5.4-18.62a2.77,2.77,0,0,1,3.15-2l16.47,3a2.75,2.75,0,0,1,2.25,3l-2.7,30.51h0A1.56,1.56,0,0,0,97,204.59h57.86a1.57,1.57,0,0,0,1.57-1.55L157.5,18.17A2.77,2.77,0,0,0,155.23,15.43ZM104.21,128a2.76,2.76,0,0,1-3.25,2.59L86.47,127.9a2.75,2.75,0,0,1-2.17-3.46q5.76-20.18,18.37-56.4A2.77,2.77,0,0,1,108,69.17Q105.37,102.71,104.21,128Z"/></g></g></svg>